<mxfile host="65bd71144e">
    <diagram id="1WUF9ixDnFJiTec8_LQS" name="Create Project">
        <mxGraphModel dx="1611" dy="769" grid="1" gridSize="10" guides="1" tooltips="1" connect="1" arrows="1" fold="1" page="1" pageScale="1" pageWidth="850" pageHeight="1100" math="0" shadow="0">
            <root>
                <mxCell id="0"/>
                <mxCell id="1" parent="0"/>
                <mxCell id="5" value="TOGAF - Jtech" style="strokeWidth=1;shadow=0;dashed=0;align=center;html=1;shape=mxgraph.mockup.containers.window;align=left;verticalAlign=top;spacingLeft=8;strokeColor2=#008cff;strokeColor3=#c4c4c4;fontColor=#666666;mainText=;fontSize=17;labelBackgroundColor=none;" vertex="1" parent="1">
                    <mxGeometry x="30" y="30" width="800" height="650" as="geometry"/>
                </mxCell>
                <mxCell id="6" value="" style="rounded=0;whiteSpace=wrap;html=1;" vertex="1" parent="1">
                    <mxGeometry x="30" y="60" width="80" height="620" as="geometry"/>
                </mxCell>
                <mxCell id="7" value="" style="rounded=0;whiteSpace=wrap;html=1;fillColor=#a20025;fontColor=#ffffff;strokeColor=#6F0000;" vertex="1" parent="1">
                    <mxGeometry x="49" y="620" width="42" height="45" as="geometry"/>
                </mxCell>
                <mxCell id="8" value="" style="rounded=0;whiteSpace=wrap;html=1;fillColor=#a20025;fontColor=#ffffff;strokeColor=#6F0000;" vertex="1" parent="1">
                    <mxGeometry x="49" y="70" width="42" height="20" as="geometry"/>
                </mxCell>
                <mxCell id="9" value="" style="rounded=0;whiteSpace=wrap;html=1;fillColor=#a20025;fontColor=#ffffff;strokeColor=#6F0000;" vertex="1" parent="1">
                    <mxGeometry x="49" y="110" width="42" height="45" as="geometry"/>
                </mxCell>
                <mxCell id="10" value="" style="rounded=0;whiteSpace=wrap;html=1;fillColor=#a20025;fontColor=#ffffff;strokeColor=#6F0000;" vertex="1" parent="1">
                    <mxGeometry x="49" y="170" width="42" height="45" as="geometry"/>
                </mxCell>
                <mxCell id="11" value="" style="rounded=0;whiteSpace=wrap;html=1;fillColor=#a20025;fontColor=#ffffff;strokeColor=#6F0000;" vertex="1" parent="1">
                    <mxGeometry x="49" y="290" width="42" height="45" as="geometry"/>
                </mxCell>
                <mxCell id="12" value="" style="rounded=0;whiteSpace=wrap;html=1;fillColor=#a20025;fontColor=#ffffff;strokeColor=#6F0000;" vertex="1" parent="1">
                    <mxGeometry x="49" y="230" width="42" height="45" as="geometry"/>
                </mxCell>
                <mxCell id="15" value="Create Project" style="strokeWidth=1;shadow=0;dashed=0;align=center;html=1;shape=mxgraph.mockup.containers.window;align=left;verticalAlign=top;spacingLeft=8;strokeColor2=#008cff;strokeColor3=#c4c4c4;fontColor=#666666;mainText=;fontSize=17;labelBackgroundColor=none;" vertex="1" parent="1">
                    <mxGeometry x="170" y="108.75" width="590" height="351.25" as="geometry"/>
                </mxCell>
                <mxCell id="16" value="Project Name" style="strokeWidth=1;shadow=0;dashed=0;align=center;html=1;shape=mxgraph.mockup.text.textBox;fontColor=#666666;align=left;fontSize=17;spacingLeft=4;spacingTop=-3;strokeColor=#666666;mainText=" vertex="1" parent="1">
                    <mxGeometry x="200" y="170" width="520" height="30" as="geometry"/>
                </mxCell>
                <mxCell id="17" value="Description" style="strokeWidth=1;shadow=0;dashed=0;align=center;html=1;shape=mxgraph.mockup.text.textBox;fontColor=#666666;align=left;fontSize=17;spacingLeft=4;spacingTop=-3;strokeColor=#666666;mainText=;verticalAlign=top;" vertex="1" parent="1">
                    <mxGeometry x="200" y="220" width="520" height="90" as="geometry"/>
                </mxCell>
                <mxCell id="18" value="Model 001" style="strokeWidth=1;shadow=0;dashed=0;align=center;html=1;shape=mxgraph.mockup.forms.comboBox;strokeColor=#999999;fillColor=#ddeeff;align=left;fillColor2=#aaddff;mainText=;fontColor=#666666;fontSize=17;spacingLeft=3;" vertex="1" parent="1">
                    <mxGeometry x="570" y="330" width="150" height="40" as="geometry"/>
                </mxCell>
                <mxCell id="20" value="Start Phases" style="strokeWidth=1;shadow=0;dashed=0;align=center;html=1;shape=mxgraph.mockup.buttons.button;strokeColor=#666666;fontColor=#ffffff;mainText=;buttonStyle=round;fontSize=17;fontStyle=1;fillColor=#008cff;whiteSpace=wrap;" vertex="1" parent="1">
                    <mxGeometry x="570" y="400" width="150" height="50" as="geometry"/>
                </mxCell>
            </root>
        </mxGraphModel>
    </diagram>
    <diagram name="Create Model" id="Lv1Tq3uPvHE0QUjVrc5T">
        <mxGraphModel dx="1611" dy="769" grid="1" gridSize="10" guides="1" tooltips="1" connect="1" arrows="1" fold="1" page="1" pageScale="1" pageWidth="850" pageHeight="1100" math="0" shadow="0">
            <root>
                <mxCell id="na6Vlesm24I0Ct-U39-_-0"/>
                <mxCell id="na6Vlesm24I0Ct-U39-_-1" parent="na6Vlesm24I0Ct-U39-_-0"/>
                <mxCell id="na6Vlesm24I0Ct-U39-_-2" value="TOGAF - Jtech" style="strokeWidth=1;shadow=0;dashed=0;align=center;html=1;shape=mxgraph.mockup.containers.window;align=left;verticalAlign=top;spacingLeft=8;strokeColor2=#008cff;strokeColor3=#c4c4c4;fontColor=#666666;mainText=;fontSize=17;labelBackgroundColor=none;" vertex="1" parent="na6Vlesm24I0Ct-U39-_-1">
                    <mxGeometry x="30" y="30" width="800" height="650" as="geometry"/>
                </mxCell>
                <mxCell id="na6Vlesm24I0Ct-U39-_-3" value="" style="rounded=0;whiteSpace=wrap;html=1;" vertex="1" parent="na6Vlesm24I0Ct-U39-_-1">
                    <mxGeometry x="30" y="60" width="80" height="620" as="geometry"/>
                </mxCell>
                <mxCell id="na6Vlesm24I0Ct-U39-_-4" value="" style="rounded=0;whiteSpace=wrap;html=1;fillColor=#a20025;fontColor=#ffffff;strokeColor=#6F0000;" vertex="1" parent="na6Vlesm24I0Ct-U39-_-1">
                    <mxGeometry x="49" y="620" width="42" height="45" as="geometry"/>
                </mxCell>
                <mxCell id="na6Vlesm24I0Ct-U39-_-5" value="" style="rounded=0;whiteSpace=wrap;html=1;fillColor=#a20025;fontColor=#ffffff;strokeColor=#6F0000;" vertex="1" parent="na6Vlesm24I0Ct-U39-_-1">
                    <mxGeometry x="49" y="70" width="42" height="20" as="geometry"/>
                </mxCell>
                <mxCell id="na6Vlesm24I0Ct-U39-_-6" value="" style="rounded=0;whiteSpace=wrap;html=1;fillColor=#a20025;fontColor=#ffffff;strokeColor=#6F0000;" vertex="1" parent="na6Vlesm24I0Ct-U39-_-1">
                    <mxGeometry x="49" y="110" width="42" height="45" as="geometry"/>
                </mxCell>
                <mxCell id="na6Vlesm24I0Ct-U39-_-7" value="" style="rounded=0;whiteSpace=wrap;html=1;fillColor=#a20025;fontColor=#ffffff;strokeColor=#6F0000;" vertex="1" parent="na6Vlesm24I0Ct-U39-_-1">
                    <mxGeometry x="49" y="170" width="42" height="45" as="geometry"/>
                </mxCell>
                <mxCell id="na6Vlesm24I0Ct-U39-_-8" value="" style="rounded=0;whiteSpace=wrap;html=1;fillColor=#a20025;fontColor=#ffffff;strokeColor=#6F0000;" vertex="1" parent="na6Vlesm24I0Ct-U39-_-1">
                    <mxGeometry x="49" y="290" width="42" height="45" as="geometry"/>
                </mxCell>
                <mxCell id="na6Vlesm24I0Ct-U39-_-9" value="" style="rounded=0;whiteSpace=wrap;html=1;fillColor=#a20025;fontColor=#ffffff;strokeColor=#6F0000;" vertex="1" parent="na6Vlesm24I0Ct-U39-_-1">
                    <mxGeometry x="49" y="230" width="42" height="45" as="geometry"/>
                </mxCell>
                <mxCell id="na6Vlesm24I0Ct-U39-_-10" value="Create Model" style="strokeWidth=1;shadow=0;dashed=0;align=center;html=1;shape=mxgraph.mockup.containers.window;align=left;verticalAlign=top;spacingLeft=8;strokeColor2=#008cff;strokeColor3=#c4c4c4;fontColor=#666666;mainText=;fontSize=17;labelBackgroundColor=none;" vertex="1" parent="na6Vlesm24I0Ct-U39-_-1">
                    <mxGeometry x="170" y="108.75" width="590" height="451.25" as="geometry"/>
                </mxCell>
                <mxCell id="na6Vlesm24I0Ct-U39-_-11" value="Model Name" style="strokeWidth=1;shadow=0;dashed=0;align=center;html=1;shape=mxgraph.mockup.text.textBox;fontColor=#666666;align=left;fontSize=17;spacingLeft=4;spacingTop=-3;strokeColor=#666666;mainText=" vertex="1" parent="na6Vlesm24I0Ct-U39-_-1">
                    <mxGeometry x="200" y="170" width="520" height="30" as="geometry"/>
                </mxCell>
                <mxCell id="na6Vlesm24I0Ct-U39-_-12" value="Description" style="strokeWidth=1;shadow=0;dashed=0;align=center;html=1;shape=mxgraph.mockup.text.textBox;fontColor=#666666;align=left;fontSize=17;spacingLeft=4;spacingTop=-3;strokeColor=#666666;mainText=;verticalAlign=top;" vertex="1" parent="na6Vlesm24I0Ct-U39-_-1">
                    <mxGeometry x="200" y="220" width="520" height="90" as="geometry"/>
                </mxCell>
                <mxCell id="qDgoxrQS8slhw-objV7b-0" value="" style="strokeWidth=1;shadow=0;dashed=0;align=center;html=1;shape=mxgraph.mockup.forms.rrect;rSize=0;strokeColor=#999999;fillColor=#ffffff;recursiveResize=0;" vertex="1" parent="na6Vlesm24I0Ct-U39-_-1">
                    <mxGeometry x="200" y="335" width="520" height="125" as="geometry"/>
                </mxCell>
                <mxCell id="qDgoxrQS8slhw-objV7b-1" value="Phase A" style="strokeWidth=1;shadow=0;dashed=0;align=center;html=1;shape=mxgraph.mockup.forms.rrect;rSize=0;fillColor=#eeeeee;strokeColor=#999999;gradientColor=#cccccc;align=left;spacingLeft=4;fontSize=17;fontColor=#666666;labelPosition=right;" vertex="1" parent="qDgoxrQS8slhw-objV7b-0">
                    <mxGeometry x="8" y="7.5" width="15" height="15" as="geometry"/>
                </mxCell>
                <mxCell id="qDgoxrQS8slhw-objV7b-2" value="Phase B" style="strokeWidth=1;shadow=0;dashed=0;align=center;html=1;shape=mxgraph.mockup.forms.rrect;rSize=0;fillColor=#eeeeee;strokeColor=#999999;gradientColor=#cccccc;align=left;spacingLeft=4;fontSize=17;fontColor=#666666;labelPosition=right;" vertex="1" parent="qDgoxrQS8slhw-objV7b-0">
                    <mxGeometry x="8" y="37.5" width="15" height="15" as="geometry"/>
                </mxCell>
                <mxCell id="qDgoxrQS8slhw-objV7b-3" value="Phase C" style="strokeWidth=1;shadow=0;dashed=0;align=center;html=1;shape=mxgraph.mockup.forms.checkbox;rSize=0;resizable=0;fillColor=#aaaaaa;strokeColor=#444444;gradientColor=#666666;align=left;spacingLeft=4;fontSize=17;fontColor=#008cff;labelPosition=right;" vertex="1" parent="qDgoxrQS8slhw-objV7b-0">
                    <mxGeometry x="8" y="67.5" width="15" height="15" as="geometry"/>
                </mxCell>
                <mxCell id="qDgoxrQS8slhw-objV7b-4" value="Phase D" style="strokeWidth=1;shadow=0;dashed=0;align=center;html=1;shape=mxgraph.mockup.forms.rrect;rSize=0;fillColor=#eeeeee;strokeColor=#999999;gradientColor=#cccccc;align=left;spacingLeft=4;fontSize=17;fontColor=#666666;labelPosition=right;" vertex="1" parent="qDgoxrQS8slhw-objV7b-0">
                    <mxGeometry x="8" y="97.5" width="15" height="15" as="geometry"/>
                </mxCell>
                <mxCell id="qDgoxrQS8slhw-objV7b-5" value="Preliminar" style="strokeWidth=1;shadow=0;dashed=0;align=center;html=1;shape=mxgraph.mockup.forms.rrect;rSize=0;fillColor=#eeeeee;strokeColor=#999999;gradientColor=#cccccc;align=left;spacingLeft=4;fontSize=17;fontColor=#666666;labelPosition=right;" vertex="1" parent="na6Vlesm24I0Ct-U39-_-1">
                    <mxGeometry x="620" y="470" width="15" height="15" as="geometry"/>
                </mxCell>
                <mxCell id="qDgoxrQS8slhw-objV7b-8" value="Create" style="strokeWidth=1;shadow=0;dashed=0;align=center;html=1;shape=mxgraph.mockup.buttons.button;strokeColor=#666666;fontColor=#ffffff;mainText=;buttonStyle=round;fontSize=17;fontStyle=1;fillColor=#008cff;whiteSpace=wrap;" vertex="1" parent="na6Vlesm24I0Ct-U39-_-1">
                    <mxGeometry x="570" y="500" width="150" height="50" as="geometry"/>
                </mxCell>
            </root>
        </mxGraphModel>
    </diagram>
    <diagram name="Create Phase" id="bLbG0GPlzgdlSkuPDu8_">
        <mxGraphModel dx="1611" dy="769" grid="1" gridSize="10" guides="1" tooltips="1" connect="1" arrows="1" fold="1" page="1" pageScale="1" pageWidth="850" pageHeight="1100" math="0" shadow="0">
            <root>
                <mxCell id="L7UG-ir532uQwDd4DyLx-0"/>
                <mxCell id="L7UG-ir532uQwDd4DyLx-1" parent="L7UG-ir532uQwDd4DyLx-0"/>
                <mxCell id="L7UG-ir532uQwDd4DyLx-2" value="TOGAF - Jtech" style="strokeWidth=1;shadow=0;dashed=0;align=center;html=1;shape=mxgraph.mockup.containers.window;align=left;verticalAlign=top;spacingLeft=8;strokeColor2=#008cff;strokeColor3=#c4c4c4;fontColor=#666666;mainText=;fontSize=17;labelBackgroundColor=none;" vertex="1" parent="L7UG-ir532uQwDd4DyLx-1">
                    <mxGeometry x="30" y="30" width="800" height="650" as="geometry"/>
                </mxCell>
                <mxCell id="L7UG-ir532uQwDd4DyLx-3" value="" style="rounded=0;whiteSpace=wrap;html=1;" vertex="1" parent="L7UG-ir532uQwDd4DyLx-1">
                    <mxGeometry x="30" y="60" width="80" height="620" as="geometry"/>
                </mxCell>
                <mxCell id="L7UG-ir532uQwDd4DyLx-4" value="" style="rounded=0;whiteSpace=wrap;html=1;fillColor=#a20025;fontColor=#ffffff;strokeColor=#6F0000;" vertex="1" parent="L7UG-ir532uQwDd4DyLx-1">
                    <mxGeometry x="49" y="620" width="42" height="45" as="geometry"/>
                </mxCell>
                <mxCell id="L7UG-ir532uQwDd4DyLx-5" value="" style="rounded=0;whiteSpace=wrap;html=1;fillColor=#a20025;fontColor=#ffffff;strokeColor=#6F0000;" vertex="1" parent="L7UG-ir532uQwDd4DyLx-1">
                    <mxGeometry x="49" y="70" width="42" height="20" as="geometry"/>
                </mxCell>
                <mxCell id="L7UG-ir532uQwDd4DyLx-6" value="" style="rounded=0;whiteSpace=wrap;html=1;fillColor=#a20025;fontColor=#ffffff;strokeColor=#6F0000;" vertex="1" parent="L7UG-ir532uQwDd4DyLx-1">
                    <mxGeometry x="49" y="110" width="42" height="45" as="geometry"/>
                </mxCell>
                <mxCell id="L7UG-ir532uQwDd4DyLx-7" value="" style="rounded=0;whiteSpace=wrap;html=1;fillColor=#a20025;fontColor=#ffffff;strokeColor=#6F0000;" vertex="1" parent="L7UG-ir532uQwDd4DyLx-1">
                    <mxGeometry x="49" y="170" width="42" height="45" as="geometry"/>
                </mxCell>
                <mxCell id="L7UG-ir532uQwDd4DyLx-8" value="" style="rounded=0;whiteSpace=wrap;html=1;fillColor=#a20025;fontColor=#ffffff;strokeColor=#6F0000;" vertex="1" parent="L7UG-ir532uQwDd4DyLx-1">
                    <mxGeometry x="49" y="290" width="42" height="45" as="geometry"/>
                </mxCell>
                <mxCell id="L7UG-ir532uQwDd4DyLx-9" value="" style="rounded=0;whiteSpace=wrap;html=1;fillColor=#a20025;fontColor=#ffffff;strokeColor=#6F0000;" vertex="1" parent="L7UG-ir532uQwDd4DyLx-1">
                    <mxGeometry x="49" y="230" width="42" height="45" as="geometry"/>
                </mxCell>
                <mxCell id="L7UG-ir532uQwDd4DyLx-10" value="Create Phase" style="strokeWidth=1;shadow=0;dashed=0;align=center;html=1;shape=mxgraph.mockup.containers.window;align=left;verticalAlign=top;spacingLeft=8;strokeColor2=#008cff;strokeColor3=#c4c4c4;fontColor=#666666;mainText=;fontSize=17;labelBackgroundColor=none;" vertex="1" parent="L7UG-ir532uQwDd4DyLx-1">
                    <mxGeometry x="170" y="108.75" width="590" height="301.25" as="geometry"/>
                </mxCell>
                <mxCell id="L7UG-ir532uQwDd4DyLx-11" value="Phase Name" style="strokeWidth=1;shadow=0;dashed=0;align=center;html=1;shape=mxgraph.mockup.text.textBox;fontColor=#666666;align=left;fontSize=17;spacingLeft=4;spacingTop=-3;strokeColor=#666666;mainText=" vertex="1" parent="L7UG-ir532uQwDd4DyLx-1">
                    <mxGeometry x="200" y="170" width="520" height="30" as="geometry"/>
                </mxCell>
                <mxCell id="L7UG-ir532uQwDd4DyLx-12" value="Description" style="strokeWidth=1;shadow=0;dashed=0;align=center;html=1;shape=mxgraph.mockup.text.textBox;fontColor=#666666;align=left;fontSize=17;spacingLeft=4;spacingTop=-3;strokeColor=#666666;mainText=;verticalAlign=top;" vertex="1" parent="L7UG-ir532uQwDd4DyLx-1">
                    <mxGeometry x="200" y="220" width="520" height="90" as="geometry"/>
                </mxCell>
                <mxCell id="L7UG-ir532uQwDd4DyLx-19" value="Create" style="strokeWidth=1;shadow=0;dashed=0;align=center;html=1;shape=mxgraph.mockup.buttons.button;strokeColor=#666666;fontColor=#ffffff;mainText=;buttonStyle=round;fontSize=17;fontStyle=1;fillColor=#008cff;whiteSpace=wrap;" vertex="1" parent="L7UG-ir532uQwDd4DyLx-1">
                    <mxGeometry x="570" y="335" width="150" height="50" as="geometry"/>
                </mxCell>
            </root>
        </mxGraphModel>
    </diagram>
    <diagram name="Create User" id="DtVIi4UNR4b2G0UNiL3L">
        <mxGraphModel dx="1611" dy="769" grid="1" gridSize="10" guides="1" tooltips="1" connect="1" arrows="1" fold="1" page="1" pageScale="1" pageWidth="850" pageHeight="1100" math="0" shadow="0">
            <root>
                <mxCell id="w9v7uK6qGDFYIU3bj__4-0"/>
                <mxCell id="w9v7uK6qGDFYIU3bj__4-1" parent="w9v7uK6qGDFYIU3bj__4-0"/>
                <mxCell id="w9v7uK6qGDFYIU3bj__4-2" value="TOGAF - Jtech" style="strokeWidth=1;shadow=0;dashed=0;align=center;html=1;shape=mxgraph.mockup.containers.window;align=left;verticalAlign=top;spacingLeft=8;strokeColor2=#008cff;strokeColor3=#c4c4c4;fontColor=#666666;mainText=;fontSize=17;labelBackgroundColor=none;" vertex="1" parent="w9v7uK6qGDFYIU3bj__4-1">
                    <mxGeometry x="30" y="30" width="800" height="650" as="geometry"/>
                </mxCell>
                <mxCell id="w9v7uK6qGDFYIU3bj__4-3" value="" style="rounded=0;whiteSpace=wrap;html=1;" vertex="1" parent="w9v7uK6qGDFYIU3bj__4-1">
                    <mxGeometry x="30" y="60" width="80" height="620" as="geometry"/>
                </mxCell>
                <mxCell id="w9v7uK6qGDFYIU3bj__4-4" value="" style="rounded=0;whiteSpace=wrap;html=1;fillColor=#a20025;fontColor=#ffffff;strokeColor=#6F0000;" vertex="1" parent="w9v7uK6qGDFYIU3bj__4-1">
                    <mxGeometry x="49" y="620" width="42" height="45" as="geometry"/>
                </mxCell>
                <mxCell id="w9v7uK6qGDFYIU3bj__4-5" value="" style="rounded=0;whiteSpace=wrap;html=1;fillColor=#a20025;fontColor=#ffffff;strokeColor=#6F0000;" vertex="1" parent="w9v7uK6qGDFYIU3bj__4-1">
                    <mxGeometry x="49" y="70" width="42" height="20" as="geometry"/>
                </mxCell>
                <mxCell id="w9v7uK6qGDFYIU3bj__4-6" value="" style="rounded=0;whiteSpace=wrap;html=1;fillColor=#a20025;fontColor=#ffffff;strokeColor=#6F0000;" vertex="1" parent="w9v7uK6qGDFYIU3bj__4-1">
                    <mxGeometry x="49" y="110" width="42" height="45" as="geometry"/>
                </mxCell>
                <mxCell id="w9v7uK6qGDFYIU3bj__4-7" value="" style="rounded=0;whiteSpace=wrap;html=1;fillColor=#a20025;fontColor=#ffffff;strokeColor=#6F0000;" vertex="1" parent="w9v7uK6qGDFYIU3bj__4-1">
                    <mxGeometry x="49" y="170" width="42" height="45" as="geometry"/>
                </mxCell>
                <mxCell id="w9v7uK6qGDFYIU3bj__4-8" value="" style="rounded=0;whiteSpace=wrap;html=1;fillColor=#a20025;fontColor=#ffffff;strokeColor=#6F0000;" vertex="1" parent="w9v7uK6qGDFYIU3bj__4-1">
                    <mxGeometry x="49" y="290" width="42" height="45" as="geometry"/>
                </mxCell>
                <mxCell id="w9v7uK6qGDFYIU3bj__4-9" value="" style="rounded=0;whiteSpace=wrap;html=1;fillColor=#a20025;fontColor=#ffffff;strokeColor=#6F0000;" vertex="1" parent="w9v7uK6qGDFYIU3bj__4-1">
                    <mxGeometry x="49" y="230" width="42" height="45" as="geometry"/>
                </mxCell>
                <mxCell id="w9v7uK6qGDFYIU3bj__4-10" value="Create User" style="strokeWidth=1;shadow=0;dashed=0;align=center;html=1;shape=mxgraph.mockup.containers.window;align=left;verticalAlign=top;spacingLeft=8;strokeColor2=#008cff;strokeColor3=#c4c4c4;fontColor=#666666;mainText=;fontSize=17;labelBackgroundColor=none;" vertex="1" parent="w9v7uK6qGDFYIU3bj__4-1">
                    <mxGeometry x="170" y="108.75" width="590" height="321.25" as="geometry"/>
                </mxCell>
                <mxCell id="w9v7uK6qGDFYIU3bj__4-11" value="Username" style="strokeWidth=1;shadow=0;dashed=0;align=center;html=1;shape=mxgraph.mockup.text.textBox;fontColor=#666666;align=left;fontSize=17;spacingLeft=4;spacingTop=-3;strokeColor=#666666;mainText=" vertex="1" parent="w9v7uK6qGDFYIU3bj__4-1">
                    <mxGeometry x="200" y="170" width="520" height="30" as="geometry"/>
                </mxCell>
                <mxCell id="w9v7uK6qGDFYIU3bj__4-13" value="Create" style="strokeWidth=1;shadow=0;dashed=0;align=center;html=1;shape=mxgraph.mockup.buttons.button;strokeColor=#666666;fontColor=#ffffff;mainText=;buttonStyle=round;fontSize=17;fontStyle=1;fillColor=#008cff;whiteSpace=wrap;" vertex="1" parent="w9v7uK6qGDFYIU3bj__4-1">
                    <mxGeometry x="570" y="350" width="150" height="50" as="geometry"/>
                </mxCell>
                <mxCell id="hE4gFhjG3u23MOkpUZxr-0" value="Email" style="strokeWidth=1;shadow=0;dashed=0;align=center;html=1;shape=mxgraph.mockup.text.textBox;fontColor=#666666;align=left;fontSize=17;spacingLeft=4;spacingTop=-3;strokeColor=#666666;mainText=" vertex="1" parent="w9v7uK6qGDFYIU3bj__4-1">
                    <mxGeometry x="200" y="260" width="520" height="30" as="geometry"/>
                </mxCell>
                <mxCell id="hE4gFhjG3u23MOkpUZxr-1" value="********" style="strokeWidth=1;shadow=0;dashed=0;align=center;html=1;shape=mxgraph.mockup.forms.pwField;strokeColor=#999999;mainText=;align=left;fontColor=#666666;fontSize=17;spacingLeft=3;" vertex="1" parent="w9v7uK6qGDFYIU3bj__4-1">
                    <mxGeometry x="200" y="215" width="320" height="30" as="geometry"/>
                </mxCell>
                <mxCell id="hE4gFhjG3u23MOkpUZxr-2" value="Role - ARCHITECT" style="strokeWidth=1;shadow=0;dashed=0;align=center;html=1;shape=mxgraph.mockup.forms.comboBox;strokeColor=#999999;fillColor=#ddeeff;align=left;fillColor2=#aaddff;mainText=;fontColor=#666666;fontSize=17;spacingLeft=3;" vertex="1" parent="w9v7uK6qGDFYIU3bj__4-1">
                    <mxGeometry x="200" y="305" width="520" height="30" as="geometry"/>
                </mxCell>
            </root>
        </mxGraphModel>
    </diagram>
    <diagram name="Principal_001" id="qPxRpMOn7HUuBA4wGW9T">
        <mxGraphModel dx="1611" dy="769" grid="1" gridSize="10" guides="1" tooltips="1" connect="1" arrows="1" fold="1" page="1" pageScale="1" pageWidth="850" pageHeight="1100" math="0" shadow="0">
            <root>
                <mxCell id="MdjOOLyRF0i8J20XT-2x-0"/>
                <mxCell id="MdjOOLyRF0i8J20XT-2x-1" parent="MdjOOLyRF0i8J20XT-2x-0"/>
                <mxCell id="MdjOOLyRF0i8J20XT-2x-2" value="TOGAF - Jtech" style="strokeWidth=1;shadow=0;dashed=0;align=center;html=1;shape=mxgraph.mockup.containers.window;align=left;verticalAlign=top;spacingLeft=8;strokeColor2=#008cff;strokeColor3=#c4c4c4;fontColor=#666666;mainText=;fontSize=17;labelBackgroundColor=none;" vertex="1" parent="MdjOOLyRF0i8J20XT-2x-1">
                    <mxGeometry x="30" y="30" width="800" height="650" as="geometry"/>
                </mxCell>
                <mxCell id="MdjOOLyRF0i8J20XT-2x-3" value="" style="rounded=0;whiteSpace=wrap;html=1;" vertex="1" parent="MdjOOLyRF0i8J20XT-2x-1">
                    <mxGeometry x="30" y="60" width="80" height="620" as="geometry"/>
                </mxCell>
                <mxCell id="MdjOOLyRF0i8J20XT-2x-4" value="" style="rounded=0;whiteSpace=wrap;html=1;fillColor=#a20025;fontColor=#ffffff;strokeColor=#6F0000;" vertex="1" parent="MdjOOLyRF0i8J20XT-2x-1">
                    <mxGeometry x="49" y="620" width="42" height="45" as="geometry"/>
                </mxCell>
                <mxCell id="MdjOOLyRF0i8J20XT-2x-5" value="" style="rounded=0;whiteSpace=wrap;html=1;fillColor=#a20025;fontColor=#ffffff;strokeColor=#6F0000;" vertex="1" parent="MdjOOLyRF0i8J20XT-2x-1">
                    <mxGeometry x="49" y="70" width="42" height="20" as="geometry"/>
                </mxCell>
                <mxCell id="MdjOOLyRF0i8J20XT-2x-6" value="" style="rounded=0;whiteSpace=wrap;html=1;fillColor=#a20025;fontColor=#ffffff;strokeColor=#6F0000;" vertex="1" parent="MdjOOLyRF0i8J20XT-2x-1">
                    <mxGeometry x="49" y="110" width="42" height="45" as="geometry"/>
                </mxCell>
                <mxCell id="MdjOOLyRF0i8J20XT-2x-7" value="" style="rounded=0;whiteSpace=wrap;html=1;fillColor=#a20025;fontColor=#ffffff;strokeColor=#6F0000;" vertex="1" parent="MdjOOLyRF0i8J20XT-2x-1">
                    <mxGeometry x="49" y="170" width="42" height="45" as="geometry"/>
                </mxCell>
                <mxCell id="MdjOOLyRF0i8J20XT-2x-8" value="" style="rounded=0;whiteSpace=wrap;html=1;fillColor=#a20025;fontColor=#ffffff;strokeColor=#6F0000;" vertex="1" parent="MdjOOLyRF0i8J20XT-2x-1">
                    <mxGeometry x="49" y="290" width="42" height="45" as="geometry"/>
                </mxCell>
                <mxCell id="MdjOOLyRF0i8J20XT-2x-9" value="" style="rounded=0;whiteSpace=wrap;html=1;fillColor=#a20025;fontColor=#ffffff;strokeColor=#6F0000;" vertex="1" parent="MdjOOLyRF0i8J20XT-2x-1">
                    <mxGeometry x="49" y="230" width="42" height="45" as="geometry"/>
                </mxCell>
                <mxCell id="d3a0myzoS9eIHDnfKptv-0" value="Project 001" style="rounded=0;whiteSpace=wrap;html=1;fontSize=32;" vertex="1" parent="MdjOOLyRF0i8J20XT-2x-1">
                    <mxGeometry x="110" y="60" width="720" height="60" as="geometry"/>
                </mxCell>
                <mxCell id="d3a0myzoS9eIHDnfKptv-1" value="&amp;nbsp; Analyst: John Doe&amp;nbsp; &amp;nbsp;|&amp;nbsp; &amp;nbsp;Product Owner: Barry Allen&amp;nbsp; &amp;nbsp;|&amp;nbsp; &amp;nbsp;Architect: Bruce Banner" style="rounded=0;whiteSpace=wrap;html=1;fontSize=17;align=center;" vertex="1" parent="MdjOOLyRF0i8J20XT-2x-1">
                    <mxGeometry x="110" y="120" width="720" height="30" as="geometry"/>
                </mxCell>
                <mxCell id="d3a0myzoS9eIHDnfKptv-5" value="Preliminary Phase" style="rounded=0;whiteSpace=wrap;html=1;fontSize=22;fillColor=#60a917;fontColor=#ffffff;strokeColor=#2D7600;" vertex="1" parent="MdjOOLyRF0i8J20XT-2x-1">
                    <mxGeometry x="115" y="170" width="710" height="40" as="geometry"/>
                </mxCell>
                <mxCell id="d3a0myzoS9eIHDnfKptv-8" value="Phase A - Architecture Vision" style="rounded=0;whiteSpace=wrap;html=1;fontSize=22;fillColor=#60a917;fontColor=#ffffff;strokeColor=#2D7600;" vertex="1" parent="MdjOOLyRF0i8J20XT-2x-1">
                    <mxGeometry x="115" y="210" width="710" height="40" as="geometry"/>
                </mxCell>
                <mxCell id="d3a0myzoS9eIHDnfKptv-9" value="Phase B - Business Architecture" style="rounded=0;whiteSpace=wrap;html=1;fontSize=22;fillColor=#60a917;fontColor=#ffffff;strokeColor=#2D7600;" vertex="1" parent="MdjOOLyRF0i8J20XT-2x-1">
                    <mxGeometry x="115" y="250" width="710" height="40" as="geometry"/>
                </mxCell>
                <mxCell id="d3a0myzoS9eIHDnfKptv-10" value="Phase C - Architecture IT" style="rounded=0;whiteSpace=wrap;html=1;fontSize=22;fillColor=#f0a30a;fontColor=#000000;strokeColor=#BD7000;" vertex="1" parent="MdjOOLyRF0i8J20XT-2x-1">
                    <mxGeometry x="115" y="290" width="710" height="40" as="geometry"/>
                </mxCell>
                <mxCell id="d3a0myzoS9eIHDnfKptv-11" value="Phase F - Migrations" style="rounded=0;whiteSpace=wrap;html=1;fontSize=22;fillColor=#1ba1e2;strokeColor=#006EAF;fontColor=#ffffff;" vertex="1" parent="MdjOOLyRF0i8J20XT-2x-1">
                    <mxGeometry x="115" y="410" width="710" height="40" as="geometry"/>
                </mxCell>
                <mxCell id="d3a0myzoS9eIHDnfKptv-12" value="Phase E - Solutions and Opportunities" style="rounded=0;whiteSpace=wrap;html=1;fontSize=22;fillColor=#1ba1e2;strokeColor=#006EAF;fontColor=#ffffff;" vertex="1" parent="MdjOOLyRF0i8J20XT-2x-1">
                    <mxGeometry x="115" y="370" width="710" height="40" as="geometry"/>
                </mxCell>
                <mxCell id="d3a0myzoS9eIHDnfKptv-13" value="Phase D - Architecture Tecnology" style="rounded=0;whiteSpace=wrap;html=1;fontSize=22;fillColor=#1ba1e2;strokeColor=#006EAF;fontColor=#ffffff;" vertex="1" parent="MdjOOLyRF0i8J20XT-2x-1">
                    <mxGeometry x="115" y="330" width="710" height="40" as="geometry"/>
                </mxCell>
                <mxCell id="d3a0myzoS9eIHDnfKptv-15" value="Phase H - Change Management and Adoption" style="rounded=0;whiteSpace=wrap;html=1;fontSize=22;fillColor=#1ba1e2;strokeColor=#006EAF;fontColor=#ffffff;" vertex="1" parent="MdjOOLyRF0i8J20XT-2x-1">
                    <mxGeometry x="115" y="490" width="710" height="40" as="geometry"/>
                </mxCell>
                <mxCell id="d3a0myzoS9eIHDnfKptv-16" value="Phase G - Deploy" style="rounded=0;whiteSpace=wrap;html=1;fontSize=22;fillColor=#1ba1e2;strokeColor=#006EAF;fontColor=#ffffff;" vertex="1" parent="MdjOOLyRF0i8J20XT-2x-1">
                    <mxGeometry x="115" y="450" width="710" height="40" as="geometry"/>
                </mxCell>
                <mxCell id="d3a0myzoS9eIHDnfKptv-17" value="Completion Phase" style="rounded=0;whiteSpace=wrap;html=1;fontSize=22;fillColor=#1ba1e2;strokeColor=#006EAF;fontColor=#ffffff;" vertex="1" parent="MdjOOLyRF0i8J20XT-2x-1">
                    <mxGeometry x="115" y="530" width="710" height="40" as="geometry"/>
                </mxCell>
                <mxCell id="d3a0myzoS9eIHDnfKptv-18" value="Actual" style="rounded=1;whiteSpace=wrap;html=1;arcSize=50;strokeColor=none;strokeWidth=1;fillColor=#FFBC26;fontColor=#000000;whiteSpace=wrap;align=center;verticalAlign=middle;spacingLeft=0;fontStyle=1;fontSize=14;spacing=10;" vertex="1" parent="MdjOOLyRF0i8J20XT-2x-1">
                    <mxGeometry x="730" y="300" width="75" height="20" as="geometry"/>
                </mxCell>
                <mxCell id="d3a0myzoS9eIHDnfKptv-19" value="finished at 2024-10-01" style="rounded=1;whiteSpace=wrap;html=1;arcSize=50;strokeColor=none;strokeWidth=1;fillColor=#33A64C;fontColor=#FFFFFF;whiteSpace=wrap;align=left;verticalAlign=middle;spacingLeft=0;fontStyle=1;fontSize=14;spacing=10;" vertex="1" parent="MdjOOLyRF0i8J20XT-2x-1">
                    <mxGeometry x="640" y="180" width="170" height="20" as="geometry"/>
                </mxCell>
                <mxCell id="d3a0myzoS9eIHDnfKptv-20" value="finished at 2024-10-01" style="rounded=1;whiteSpace=wrap;html=1;arcSize=50;strokeColor=none;strokeWidth=1;fillColor=#33A64C;fontColor=#FFFFFF;whiteSpace=wrap;align=left;verticalAlign=middle;spacingLeft=0;fontStyle=1;fontSize=14;spacing=10;" vertex="1" parent="MdjOOLyRF0i8J20XT-2x-1">
                    <mxGeometry x="640" y="220" width="170" height="20" as="geometry"/>
                </mxCell>
                <mxCell id="d3a0myzoS9eIHDnfKptv-21" value="finished at 2024-10-01" style="rounded=1;whiteSpace=wrap;html=1;arcSize=50;strokeColor=none;strokeWidth=1;fillColor=#33A64C;fontColor=#FFFFFF;whiteSpace=wrap;align=left;verticalAlign=middle;spacingLeft=0;fontStyle=1;fontSize=14;spacing=10;" vertex="1" parent="MdjOOLyRF0i8J20XT-2x-1">
                    <mxGeometry x="640" y="260" width="170" height="20" as="geometry"/>
                </mxCell>
            </root>
        </mxGraphModel>
    </diagram>
    <diagram name="Principal_002" id="GQNPtwh3N6sKFJV7JlnZ">
        <mxGraphModel dx="1611" dy="769" grid="1" gridSize="10" guides="1" tooltips="1" connect="1" arrows="1" fold="1" page="1" pageScale="1" pageWidth="850" pageHeight="1100" math="0" shadow="0">
            <root>
                <mxCell id="Q9uwfSov2K87gnJPr86l-0"/>
                <mxCell id="Q9uwfSov2K87gnJPr86l-1" parent="Q9uwfSov2K87gnJPr86l-0"/>
                <mxCell id="Q9uwfSov2K87gnJPr86l-2" value="TOGAF - Jtech" style="strokeWidth=1;shadow=0;dashed=0;align=center;html=1;shape=mxgraph.mockup.containers.window;align=left;verticalAlign=top;spacingLeft=8;strokeColor2=#008cff;strokeColor3=#c4c4c4;fontColor=#666666;mainText=;fontSize=17;labelBackgroundColor=none;" vertex="1" parent="Q9uwfSov2K87gnJPr86l-1">
                    <mxGeometry x="30" y="30" width="800" height="650" as="geometry"/>
                </mxCell>
                <mxCell id="Q9uwfSov2K87gnJPr86l-3" value="" style="rounded=0;whiteSpace=wrap;html=1;" vertex="1" parent="Q9uwfSov2K87gnJPr86l-1">
                    <mxGeometry x="30" y="60" width="80" height="620" as="geometry"/>
                </mxCell>
                <mxCell id="Q9uwfSov2K87gnJPr86l-4" value="" style="rounded=0;whiteSpace=wrap;html=1;fillColor=#a20025;fontColor=#ffffff;strokeColor=#6F0000;" vertex="1" parent="Q9uwfSov2K87gnJPr86l-1">
                    <mxGeometry x="49" y="620" width="42" height="45" as="geometry"/>
                </mxCell>
                <mxCell id="Q9uwfSov2K87gnJPr86l-5" value="" style="rounded=0;whiteSpace=wrap;html=1;fillColor=#a20025;fontColor=#ffffff;strokeColor=#6F0000;" vertex="1" parent="Q9uwfSov2K87gnJPr86l-1">
                    <mxGeometry x="49" y="70" width="42" height="20" as="geometry"/>
                </mxCell>
                <mxCell id="Q9uwfSov2K87gnJPr86l-6" value="" style="rounded=0;whiteSpace=wrap;html=1;fillColor=#a20025;fontColor=#ffffff;strokeColor=#6F0000;" vertex="1" parent="Q9uwfSov2K87gnJPr86l-1">
                    <mxGeometry x="49" y="110" width="42" height="45" as="geometry"/>
                </mxCell>
                <mxCell id="Q9uwfSov2K87gnJPr86l-7" value="" style="rounded=0;whiteSpace=wrap;html=1;fillColor=#a20025;fontColor=#ffffff;strokeColor=#6F0000;" vertex="1" parent="Q9uwfSov2K87gnJPr86l-1">
                    <mxGeometry x="49" y="170" width="42" height="45" as="geometry"/>
                </mxCell>
                <mxCell id="Q9uwfSov2K87gnJPr86l-8" value="" style="rounded=0;whiteSpace=wrap;html=1;fillColor=#a20025;fontColor=#ffffff;strokeColor=#6F0000;" vertex="1" parent="Q9uwfSov2K87gnJPr86l-1">
                    <mxGeometry x="49" y="290" width="42" height="45" as="geometry"/>
                </mxCell>
                <mxCell id="Q9uwfSov2K87gnJPr86l-9" value="" style="rounded=0;whiteSpace=wrap;html=1;fillColor=#a20025;fontColor=#ffffff;strokeColor=#6F0000;" vertex="1" parent="Q9uwfSov2K87gnJPr86l-1">
                    <mxGeometry x="49" y="230" width="42" height="45" as="geometry"/>
                </mxCell>
                <mxCell id="Q9uwfSov2K87gnJPr86l-10" value="Project 001" style="rounded=0;whiteSpace=wrap;html=1;fontSize=32;" vertex="1" parent="Q9uwfSov2K87gnJPr86l-1">
                    <mxGeometry x="110" y="60" width="720" height="60" as="geometry"/>
                </mxCell>
                <mxCell id="Q9uwfSov2K87gnJPr86l-11" value="&amp;nbsp; Analyst: John Doe&amp;nbsp; &amp;nbsp;|&amp;nbsp; &amp;nbsp;Product Owner: Barry Allen&amp;nbsp; &amp;nbsp;|&amp;nbsp; &amp;nbsp;Architect: Bruce Banner" style="rounded=0;whiteSpace=wrap;html=1;fontSize=17;align=center;" vertex="1" parent="Q9uwfSov2K87gnJPr86l-1">
                    <mxGeometry x="110" y="120" width="720" height="30" as="geometry"/>
                </mxCell>
                <mxCell id="Q9uwfSov2K87gnJPr86l-15" value="Phase C - Architecture IT" style="rounded=0;whiteSpace=wrap;html=1;fontSize=22;fillColor=#f0a30a;fontColor=#000000;strokeColor=#BD7000;" vertex="1" parent="Q9uwfSov2K87gnJPr86l-1">
                    <mxGeometry x="120" y="155" width="700" height="40" as="geometry"/>
                </mxCell>
                <mxCell id="Q9uwfSov2K87gnJPr86l-22" value="Actual" style="rounded=1;whiteSpace=wrap;html=1;arcSize=50;strokeColor=none;strokeWidth=1;fillColor=#FFBC26;fontColor=#000000;whiteSpace=wrap;align=center;verticalAlign=middle;spacingLeft=0;fontStyle=1;fontSize=14;spacing=10;" vertex="1" parent="Q9uwfSov2K87gnJPr86l-1">
                    <mxGeometry x="730" y="165" width="75" height="20" as="geometry"/>
                </mxCell>
                <mxCell id="Do9wjeyEs2LsNEh7kUDA-0" value="" style="rounded=0;whiteSpace=wrap;html=1;fontSize=22;" vertex="1" parent="Q9uwfSov2K87gnJPr86l-1">
                    <mxGeometry x="120" y="195" width="700" height="465" as="geometry"/>
                </mxCell>
                <mxCell id="Do9wjeyEs2LsNEh7kUDA-3" value="" style="html=1;shadow=0;dashed=0;shape=mxgraph.bootstrap.rrect;rSize=5;strokeColor=#DFDFDF;html=1;whiteSpace=wrap;fillColor=#808080;fontColor=#000000;fontSize=22;" vertex="1" parent="Q9uwfSov2K87gnJPr86l-1">
                    <mxGeometry x="130" y="200" width="680" height="270" as="geometry"/>
                </mxCell>
                <mxCell id="Do9wjeyEs2LsNEh7kUDA-4" value="Commentary" style="html=1;shadow=0;dashed=0;shape=mxgraph.bootstrap.topButton;strokeColor=inherit;fillColor=#FFB366;rSize=5;perimeter=none;whiteSpace=wrap;resizeWidth=1;align=left;spacing=20;fontSize=14;" vertex="1" parent="Do9wjeyEs2LsNEh7kUDA-3">
                    <mxGeometry width="680" height="40" relative="1" as="geometry"/>
                </mxCell>
                <mxCell id="Do9wjeyEs2LsNEh7kUDA-5" value="&lt;span style=&quot;font-size: 20px;&quot;&gt;&lt;b&gt;Comentary&lt;/b&gt;&lt;/span&gt;" style="perimeter=none;html=1;whiteSpace=wrap;fillColor=none;strokeColor=none;resizeWidth=1;verticalAlign=top;align=left;spacing=20;spacingTop=-10;fontSize=14;" vertex="1" parent="Do9wjeyEs2LsNEh7kUDA-3">
                    <mxGeometry width="680" height="120" relative="1" as="geometry">
                        <mxPoint y="40" as="offset"/>
                    </mxGeometry>
                </mxCell>
                <mxCell id="Do9wjeyEs2LsNEh7kUDA-6" value="Comment" style="html=1;shadow=0;dashed=0;shape=mxgraph.bootstrap.rrect;rSize=5;perimeter=none;whiteSpace=wrap;fillColor=#0085FC;strokeColor=none;fontColor=#ffffff;resizeWidth=1;fontSize=14;" vertex="1" parent="Do9wjeyEs2LsNEh7kUDA-3">
                    <mxGeometry y="1" width="102" height="40" relative="1" as="geometry">
                        <mxPoint x="20" y="-60" as="offset"/>
                    </mxGeometry>
                </mxCell>
                <mxCell id="Do9wjeyEs2LsNEh7kUDA-8" value="Attach File" style="html=1;shadow=0;dashed=0;shape=mxgraph.bootstrap.rrect;rSize=5;strokeColor=none;strokeWidth=1;fillColor=#0085FC;fontColor=#FFFFFF;whiteSpace=wrap;align=center;verticalAlign=middle;spacingLeft=0;fontStyle=0;fontSize=16;spacing=5;" vertex="1" parent="Q9uwfSov2K87gnJPr86l-1">
                    <mxGeometry x="700" y="480" width="110" height="40" as="geometry"/>
                </mxCell>
                <mxCell id="Do9wjeyEs2LsNEh7kUDA-9" value="Document001.docx" style="fillColor=none;strokeColor=none;html=1;fontColor=#0057D8;align=left;fontSize=12;sketch=0;" vertex="1" parent="Q9uwfSov2K87gnJPr86l-1">
                    <mxGeometry x="155" y="487" width="125" height="33" as="geometry"/>
                </mxCell>
                <mxCell id="Do9wjeyEs2LsNEh7kUDA-10" value="" style="html=1;shadow=0;dashed=0;shape=mxgraph.atlassian.checkbox;fillColor=#008465;strokeColor=none;html=1;sketch=0;fontSize=22;" vertex="1" parent="Q9uwfSov2K87gnJPr86l-1">
                    <mxGeometry x="130" y="496" width="14" height="14" as="geometry"/>
                </mxCell>
                <mxCell id="Do9wjeyEs2LsNEh7kUDA-12" value="Document002.pdf" style="fillColor=none;strokeColor=none;html=1;fontColor=#0057D8;align=left;fontSize=12;sketch=0;" vertex="1" parent="Q9uwfSov2K87gnJPr86l-1">
                    <mxGeometry x="305" y="487" width="125" height="33" as="geometry"/>
                </mxCell>
                <mxCell id="Do9wjeyEs2LsNEh7kUDA-13" value="" style="html=1;shadow=0;dashed=0;shape=mxgraph.atlassian.checkbox;fillColor=#008465;strokeColor=none;html=1;sketch=0;fontSize=22;" vertex="1" parent="Q9uwfSov2K87gnJPr86l-1">
                    <mxGeometry x="280" y="496" width="14" height="14" as="geometry"/>
                </mxCell>
            </root>
        </mxGraphModel>
    </diagram>
</mxfile>